<svg viewBox="0 0 24 24" xmlns="http://www.w3.org/2000/svg">
  <path fill="none" fill-rule="evenodd" clip-rule="evenodd" d="M4.62911 13.0098C2.9353 11.2225 2.51628 8.49093 3.58922 6.23068L6.42885 9.22505C6.89743 9.71953 7.65686 9.71953 8.12544 9.22505L9.76538 7.5495C9.99055 7.31194 10.1171 6.98963 10.1171 6.65355C10.1171 6.31748 9.99055 5.99518 9.76538 5.7576C9.54021 5.52003 6.88575 2.71764 6.88575 2.71764C9.00063 1.49856 11.6188 1.85734 13.3688 3.60605C15.1188 5.35475 15.6017 8.09484 14.5647 10.3911L21.6382 17.8533C21.8698 18.0976 22 18.429 22 18.7746C22 19.1202 21.8698 19.4517 21.6382 19.6959L20.7655 20.618C20.534 20.8626 19.22 22 18.8924 22C18.5649 22 18.2508 21.8626 18.0194 21.618L10.9515 14.1565C8.82672 15.2271 6.29356 14.7675 4.62911 13.0098Z" stroke="black" stroke-width="2" stroke-linecap="round" stroke-linejoin="round"/>
</svg>
