<svg viewBox="0 0 24 24" xmlns="http://www.w3.org/2000/svg">
  <path fill="none" fill-rule="evenodd" clip-rule="evenodd" d="M20.1899 13.0634C22.0719 11.088 22.5375 8.06892 21.3453 5.57075L18.1902 8.88032C17.6695 9.42685 16.8257 9.42685 16.3051 8.88032L15.594 8.13366C15.3438 7.87109 15.2032 7.51486 15.2032 7.1434C15.2032 6.77195 15.3438 6.41572 15.594 6.15314L18.7936 2.79318C16.4437 1.44577 13.5347 1.84232 11.5903 3.7751C9.6458 5.70788 9.10918 8.7364 10.2614 11.2743L2.40198 19.5221C2.14462 19.7921 2 20.1583 2 20.5404C2 20.9223 2.14462 21.2887 2.40198 21.5587L3.37163 22.5778C3.62885 22.8482 3.97783 23 4.34173 23C4.70563 23 5.05461 22.8482 5.31183 22.5778L13.165 14.3309C15.5259 15.5141 18.3405 15.0062 20.1899 13.0634Z" stroke="black" stroke-width="2" stroke-linecap="round" stroke-linejoin="round"/>
</svg>
