<svg version="1.1" id="Layer_1" xmlns="http://www.w3.org/2000/svg" xmlns:xlink="http://www.w3.org/1999/xlink" x="0px" y="0px"
	 viewBox="0 0 700 180" fill="#ffffff" style="enable-background:new 0 0 700 180;" xml:space="preserve">
<g>
	<path class="st0" d="M327.76,33.57H298.3l0.05,55.12c0,16.11-6.91,29.14-23.02,29.14c-16.12,0-23.08-13.03-23.08-29.14V33.63
		h-29.38l-0.01,55.07c0,31.83,20.46,57.63,52.3,57.63c31.83,0,52.6-25.8,52.6-57.63L327.76,33.57z"/>
	<rect x="593.41" y="-0.01" class="st0" width="29.32" height="143.49"/>
	<g>
		<path class="st0" d="M644.36,5.28V0.12h22.85v5.15h-8.36V28h-6.13V5.28H644.36z"/>
		<path class="st0" d="M679.04,0.12l6.52,19.17h0.08l6.17-19.17h8.63V28h-5.74V8.24h-0.08L687.79,28h-4.73l-6.83-19.56h-0.08V28
			h-5.74V0.12H679.04z"/>
	</g>
	<path class="st0" d="M198.9,32.38c-25.27-5.83-41.21,19.27-41.87,20.62c-0.33,0.66-0.34,1.05-1.46,1.02
		c-0.92-0.02-1.03-1.02-1.03-1.02l-3.14-19.2h-26.26v109.6h29.44V84.06c0-4.85,13.05-28.09,38.35-22.11
		c12.79,3.03,18.22,8.45,18.22,8.45s0-21.16,0-33.39C206.41,34.56,203.17,33.36,198.9,32.38z"/>
	<path class="st0" d="M367.71,179.49v-39.43c0,0,0.01,0,0.01,0.01l0-14.77c0,0,0.05-1.18,1.11-1.2c0.95-0.01,1.16,0.62,1.39,1.2
		c2.23,5.55,14.51,26.71,41.75,20.08c24.38-6.87,42.27-29.26,42.27-55.85c0-32.04-25.98-58.02-58.03-58.02s-58.03,25.98-58.03,58.02
		c0,0,0,79.32,0,89.97H367.71z M396.24,60.15c16.22,0,29.37,13.15,29.37,29.37c0,16.23-13.15,29.38-29.37,29.38
		c-16.22,0-29.37-13.15-29.37-29.38C366.88,73.3,380.02,60.15,396.24,60.15z"/>
	<path class="st0" d="M551.99,143.44h29.52V89.51c0-32.04-25.98-58.02-58.02-58.02c-32.05,0-58.03,25.98-58.03,58.02
		c0,26.59,17.89,48.98,42.27,55.85c27.24,6.64,39.51-14.52,41.75-20.08c0.23-0.58,0.44-1.21,1.39-1.2c1.06,0.01,1.11,1.2,1.11,1.2
		 M552.83,89.51c0,16.23-13.15,29.38-29.37,29.38c-16.22,0-29.38-13.15-29.38-29.38c0-16.21,13.15-29.37,29.38-29.37
		C539.68,60.15,552.83,73.3,552.83,89.51z"/>
	<g>
		<path class="st0" d="M32.93,143.21H-0.55V-0.07h35.93c43.51,0,76.5,7.98,76.5,71.64C111.88,134.61,76.93,143.21,32.93,143.21z
			 M40.93,24.76H29.09v93.58l12.16,0.31c24.93,0,40.99-2.27,40.99-47.09C82.23,28.58,68.06,24.76,40.93,24.76z"/>
	</g>
</g>
</svg>
