<svg xmlns="http://www.w3.org/2000/svg" xmlns:xlink="http://www.w3.org/1999/xlink"><symbol stroke="#000" stroke-width="2" fill="none" id="checkmark" viewBox="0 0 16 16"><path d="M2 8.571L5.6 12 14 4"/></symbol><use stroke="#000" stroke-width="2" fill="none" xlink:href="#checkmark" width="16" height="16"/><view id="checkmark-view" viewBox="0 0 16 16"/><symbol fill-rule="evenodd" id="hide" viewBox="0 0 16 16"><path d="M2.01 1.696L2 1.707 14.072 13.78l-.696.697-2.078-2.078A9.232 9.232 0 018 13c-3.636 0-6.742-2.073-8-5 .647-1.505 1.783-2.784 3.228-3.672L1 2.1l.707-.707zM5 8c0-.546.146-1.058.4-1.5l4.1 4.1A3 3 0 015 8zm.151-4.556l1.76 1.76a3 3 0 013.885 3.885l2.344 2.344C14.41 10.561 15.41 9.375 16 8c-1.258-2.927-4.364-5-8-5-.999 0-1.958.156-2.849.444z"/></symbol><use fill-rule="evenodd" xlink:href="#hide" y="16" width="16" height="16"/><view id="hide-view" viewBox="0 16 16 16"/><symbol stroke="#000" stroke-width="1.5" id="remove" viewBox="0 0 16 16"><path d="M13 3L3 13m10 0L3 3"/></symbol><use stroke="#000" stroke-width="1.5" xlink:href="#remove" y="32" width="16" height="16"/><view id="remove-view" viewBox="0 32 16 16"/><symbol fill-rule="evenodd" id="show" viewBox="0 0 16 16"><path d="M8 3C4.364 3 1.258 5.073 0 8c1.258 2.927 4.364 5 8 5s6.742-2.073 8-5c-1.258-2.927-4.364-5-8-5zm0 8a3 3 0 100-6 3 3 0 000 6z"/></symbol><use fill-rule="evenodd" xlink:href="#show" y="48" width="16" height="16"/><view id="show-view" viewBox="0 48 16 16"/><symbol id="trash" viewBox="0 0 16 16"><path d="M14.9 2.9c-.1-.4-.2-.6-.2-.6-.1-.4-.4-.4-.8-.5l-2.3-.3c-.3 0-.3 0-.4-.3-.4-.7-.5-1.2-.9-1.2H5.7c-.4 0-.5.5-.9 1.3-.1.2-.1.2-.4.3l-2.3.3c-.4 0-.7.1-.8.4 0 0-.1.2-.2.5-.1.6-.2.5.3.5h13.2c.5 0 .4.1.3-.4zm-1.5 1.8H2.6c-.7 0-.8.1-.7.6l.8 10.1c.1.5.1.6.8.6h9.1c.6 0 .7-.1.8-.6l.8-10.1c0-.5-.1-.6-.8-.6z"/></symbol><use xlink:href="#trash" y="64" width="16" height="16"/><view id="trash-view" viewBox="0 64 16 16"/><symbol id="checked" viewBox="0 0 16 16"><path d="M3.795 7.096l2.387 2.506 6.023-6.327 1.484 1.56-7.507 7.89L2.31 8.656z"/></symbol><use xlink:href="#checked" y="80" width="16" height="16"/><view id="checked-view" viewBox="0 80 16 16"/><symbol id="add" viewBox="0 0 100 100"><path d="M91.125 53.008a5.772 5.772 0 01-1.61 2.508c-1.413 1.414-3.523 2.285-5.527 2.285h-.117c-.89.008-1.77 0-2.656 0l-23.402.004v26.18c0 2.117-.89 3.992-2.297 5.527-1.414 1.531-3.508 2.196-5.527 2.285a5.94 5.94 0 01-3.008-.671 5.772 5.772 0 01-2.508-1.61c-1.418-1.422-2.285-3.531-2.285-5.531v-.117c-.008-.89 0-1.77 0-2.656V57.806H16.016c-2.117 0-3.992-.88-5.527-2.286-1.536-1.418-2.2-3.507-2.286-5.527a5.94 5.94 0 01.672-3.008 5.772 5.772 0 011.61-2.508c1.414-1.414 3.523-2.285 5.527-2.285h.117c.89-.008 1.77 0 2.656 0l23.402-.004V16.016c0-2.117.891-3.992 2.297-5.527 1.414-1.535 3.504-2.2 5.524-2.285a5.94 5.94 0 013.007.672 5.772 5.772 0 012.508 1.61c1.414 1.413 2.285 3.523 2.285 5.526v.118c.008.89 0 1.77 0 2.656l.004 23.402h26.172c2.118 0 3.993.89 5.528 2.285 1.53 1.414 2.195 3.508 2.285 5.527a5.94 5.94 0 01-.672 3.008z"/></symbol><use xlink:href="#add" y="96" width="100" height="100"/><view id="add-view" viewBox="0 96 100 100"/><symbol id="asterisk" viewBox="0 0 16 16"><path d="M0 7.562l1.114-3.438c2.565.906 4.43 1.688 5.59 2.35-.306-2.921-.467-4.93-.484-6.027h3.511c-.05 1.597-.234 3.6-.558 6.003 1.664-.838 3.566-1.613 5.714-2.325L16 7.562c-2.05.678-4.06 1.131-6.028 1.356.984.856 2.372 2.381 4.166 4.575l-2.906 2.059c-.935-1.274-2.041-3.009-3.316-5.206-1.194 2.275-2.244 4.013-3.147 5.206l-2.856-2.059c1.872-2.307 3.211-3.832 4.017-4.575A86.77 86.77 0 010 7.562"/></symbol><use xlink:href="#asterisk" y="196" width="16" height="16"/><view id="asterisk-view" viewBox="0 196 16 16"/><symbol id="close" viewBox="0 0 100 100"><path d="M91.668 13.676l-5.34-5.34L50 44.66 13.672 8.336l-5.34 5.34L44.66 50 8.332 86.324l5.34 5.34L50 55.34l36.328 36.324 5.34-5.34L55.34 50z"/></symbol><use xlink:href="#close" y="212" width="100" height="100"/><view id="close-view" viewBox="0 212 100 100"/><symbol id="drop" viewBox="0 0 16 16"><path d="M1.2 5.4L2.6 4 8 9.2l5.4-5.3 1.4 1.4L8 12.1 1.2 5.4z"/></symbol><use xlink:href="#drop" y="312" width="16" height="16"/><view id="drop-view" viewBox="0 312 16 16"/><symbol id="drupal" viewBox="0 0 100 100"><path d="M65.8 21.1C58.7 14.2 52.1 7.6 50.1 0c-2 7.6-8.6 14.2-15.7 21.1C24 31.5 12.1 43.4 12.1 61.3c-.6 20.9 16.2 38.3 37.1 38.7 20.9.4 38.4-16.2 38.7-37.1v-1.6c.2-17.9-11.7-29.8-22.1-40.2zM31.5 64.7c-1.1 1.4-2.2 3.1-2.9 4.7-.2.2-.4.5-.7.5h-.2c-.9 0-1.8-1.6-1.8-1.6-.2-.4-.5-.9-.7-1.3l-.2-.4c-2.3-5-.4-12.1-.4-12.1.9-3.4 2.5-6.8 4.5-9.7 1.3-1.8 2.7-3.6 4.1-5.4l1.8 1.8 8.5 8.6c.4.4.4.9 0 1.3L34.7 61l-3.2 3.7zm19 24.8c-7.2 0-13.2-5.9-13-13.2 0-3.2 1.3-6.3 3.2-8.6 2.7-3.2 6.1-6.5 9.9-10.8 4.3 4.7 7.2 7.7 9.9 11.4.2.2.4.5.5.9 1.4 2.2 2.3 4.7 2.3 7.4.3 7.2-5.6 12.9-12.8 12.9zm24.6-20.9c-.2.5-.7.9-1.3 1.1h-.2c-.5-.2-.9-.5-1.3-.9-2.3-3.4-4.9-6.7-7.7-9.5l-3.4-3.6-11.5-11.9c-2.3-2.2-4.7-4.7-6.8-7 0-.2-.2-.2-.2-.2-.4-.5-.7-1.1-.9-1.8v-.4c-.4-2 .4-4 1.8-5.4 2.2-2.2 4.5-4.5 6.7-6.8 2.3 2.5 4.9 5 7.4 7.6 5 4.7 9.5 9.9 13.7 15.5 3.4 4.9 5.2 10.4 5.2 16.4-.4 2.1-.7 4.6-1.5 6.9z"/></symbol><use xlink:href="#drupal" y="328" width="100" height="100"/><view id="drupal-view" viewBox="0 328 100 100"/><symbol id="gin" viewBox="0 0 100 100"><path d="M50 20.5c2.5 2.9 5.3 5.6 8 8.3 10 10 19 19 19 32.4v1.7c-.4 14.7-12.5 26.6-27.2 26.6h-.5c-7.2-.2-14.1-3.1-19-8.3-4.9-5.4-7.6-12.3-7.4-19.7v-.2c0-13.4 9.4-22.5 19-32.4 2.9-2.8 5.6-5.7 8.1-8.4M50 0c-2 7.6-8.7 14.3-15.8 21C23.9 31.5 12 43.5 12 61.2c-.5 21 16.3 38.4 37.1 38.8h.9c20.5 0 37.5-16.5 38-37.1v-1.6c0-17.9-12-29.7-22.3-40.2C58.7 14.3 52 7.6 50 0z"/></symbol><use xlink:href="#gin" y="428" width="100" height="100"/><view id="gin-view" viewBox="0 428 100 100"/><symbol id="handle" viewBox="0 0 16 16"><path d="M5.4 1.2L3.9 2.6 9.2 8l-5.3 5.4 1.4 1.4L12.1 8 5.4 1.2z"/></symbol><use xlink:href="#handle" y="528" width="16" height="16"/><view id="handle-view" viewBox="0 528 16 16"/><symbol id="grid" viewBox="0 0 16 16"><path d="M10.5 9h3a1.5 1.5 0 011.5 1.5v3a1.5 1.5 0 01-1.5 1.5h-3A1.5 1.5 0 019 13.5v-3A1.5 1.5 0 0110.5 9zm-8 0h3A1.5 1.5 0 017 10.5v3A1.5 1.5 0 015.5 15h-3A1.5 1.5 0 011 13.5v-3A1.5 1.5 0 012.5 9zm8-8h3A1.5 1.5 0 0115 2.5v3A1.5 1.5 0 0113.5 7h-3A1.5 1.5 0 019 5.5v-3A1.5 1.5 0 0110.5 1zm-8 0h3A1.5 1.5 0 017 2.5v3A1.5 1.5 0 015.5 7h-3A1.5 1.5 0 011 5.5v-3A1.5 1.5 0 012.5 1z"/></symbol><use xlink:href="#grid" y="544" width="16" height="16"/><view id="grid-view" viewBox="0 544 16 16"/><symbol id="list" viewBox="0 0 16 16"><path d="M7 15a1.5 1.5 0 010-3h7a1.5 1.5 0 010 3H7zm-4.5 0a1.5 1.5 0 110-3 1.5 1.5 0 010 3zM7 9.5a1.5 1.5 0 010-3h7a1.5 1.5 0 010 3H7zm-4.5 0a1.5 1.5 0 110-3 1.5 1.5 0 010 3zM7 4a1.5 1.5 0 010-3h7a1.5 1.5 0 010 3H7zM2.5 4a1.5 1.5 0 110-3 1.5 1.5 0 010 3z"/></symbol><use xlink:href="#list" y="560" width="16" height="16"/><view id="list-view" viewBox="0 560 16 16"/><symbol id="error" viewBox="0 0 14 14"><path d="M3 11.193L11.45 3" stroke="#000" stroke-width="2"/><circle cx="7" cy="7" r="6" fill="none" stroke="#000" stroke-width="2"/></symbol><use xlink:href="#error" y="576" width="14" height="14"/><view id="error-view" viewBox="0 576 14 14"/><symbol id="info" viewBox="0 0 100 100"><path d="M50 0a50 50 0 10.001 100A50 50 0 0050 0zm0 76.398l-.488.102h-1c-.301-.059-.602-.11-.89-.192a5.54 5.54 0 112.398.09zm16-36.309a12.349 12.349 0 01-2.898 4.91 33.157 33.157 0 01-5 4.11c-1 .691-1.891 1.41-2.828 2.129h-.004a5.993 5.993 0 00-1.848 2.671c-.2.54-.43 1.079-.64 1.622a3.731 3.731 0 01-3.481 2.468 4.898 4.898 0 01-2.531-.398 4.13 4.13 0 01-2.27-3.09 7.093 7.093 0 011.2-5.3 14.575 14.575 0 013.14-3.321c1.308-1.07 2.66-2.09 4-3.16a10.51 10.51 0 002.738-3.13 5.862 5.862 0 00-.699-6.5 5.366 5.366 0 00-3-1.66 9.553 9.553 0 00-4.66.079 5.689 5.689 0 00-3.61 3c-.468.879-.879 1.781-1.32 2.672A6.422 6.422 0 0141 38.999a4.474 4.474 0 01-3.39 1.09 4.715 4.715 0 01-2.141-.578 3.713 3.713 0 01-2-3.3 9.694 9.694 0 012-6.122 15.466 15.466 0 016-4.86 18.345 18.345 0 015.691-1.64l1.121-.11h2l1.078.102v-.004c2.676.172 5.293.848 7.711 2 2.16.996 4.004 2.57 5.32 4.551a11.733 11.733 0 011.81 5.18c.269 1.59.202 3.219-.2 4.781z"/></symbol><use xlink:href="#info" y="590" width="100" height="100"/><view id="info-view" viewBox="0 590 100 100"/><symbol id="status" viewBox="0 0 16 16"><path stroke="#000" stroke-width="3" fill="none" d="M2 8.6L5.6 12 14 4"/></symbol><use xlink:href="#status" y="690" width="16" height="16"/><view id="status-view" viewBox="0 690 16 16"/><symbol id="warning" viewBox="0 0 16 16"><path d="M6.5 1h3v9h-3z"/><circle cx="8" cy="13.5" r="1.5"/></symbol><use xlink:href="#warning" y="706" width="16" height="16"/><view id="warning-view" viewBox="0 706 16 16"/><symbol fill="none" id="first" viewBox="0 0 16 16"><path d="M2 2v12M14 2L8 8l6 6" stroke="#000" stroke-width="2"/></symbol><use fill="none" xlink:href="#first" y="722" width="16" height="16"/><view id="first-view" viewBox="0 722 16 16"/><symbol fill="none" id="last" viewBox="0 0 16 16"><path d="M14 14V2M2 14l6-6-6-6" stroke="#000" stroke-width="2"/></symbol><use fill="none" xlink:href="#last" y="738" width="16" height="16"/><view id="last-view" viewBox="0 738 16 16"/><symbol id="next" viewBox="0 0 16 16"><path d="M5 14l6-6-6-6" stroke="#000" fill="none" stroke-width="2"/></symbol><use xlink:href="#next" y="754" width="16" height="16"/><view id="next-view" viewBox="0 754 16 16"/><symbol fill="none" id="prev" viewBox="0 0 16 16"><path d="M11 2L5 8l6 6" stroke="#000" stroke-width="2"/></symbol><use fill="none" xlink:href="#prev" y="770" width="16" height="16"/><view id="prev-view" viewBox="0 770 16 16"/><symbol id="clock" viewBox="0 0 100 100"><path d="M90.645 40.797a4.165 4.165 0 00-8.129 1.813c.133.601.254 1.21.36 1.824A34.16 34.16 0 0183.333 50c0 8.84-3.512 17.32-9.762 23.57a33.335 33.335 0 01-47.14 0 33.335 33.335 0 010-47.14A33.335 33.335 0 0150 16.668a33.005 33.005 0 0116.918 4.602 4.163 4.163 0 005.703-1.48 4.17 4.17 0 00-1.484-5.707 41.611 41.611 0 00-36.5-2.77A41.596 41.596 0 0010.072 38.45 41.605 41.605 0 0048.85 91.548a41.601 41.601 0 0033.327-15.137 41.598 41.598 0 008.47-35.613z"/><path d="M78.027 31.945a4.166 4.166 0 005.715 1.152 4.166 4.166 0 001.277-5.687 42.373 42.373 0 00-2.863-3.903c-1.48-1.71-4.051-1.925-5.797-.488s-2.027 4.004-.633 5.785c.828 1 1.594 2.051 2.3 3.141zm-32.195-2.777V50c0 1.578.895 3.02 2.305 3.727l16.668 8.332a4.165 4.165 0 005.59-1.864 4.168 4.168 0 00-1.864-5.59l-14.363-7.18V29.169a4.17 4.17 0 00-8.336-.001z"/></symbol><use xlink:href="#clock" y="786" width="100" height="100"/><view id="clock-view" viewBox="0 786 100 100"/><symbol id="database" viewBox="0 0 100 100"><path d="M9.734 26.496C17.801 32.621 34.25 35.851 50 35.851c15.746 0 32.2-3.234 40.266-9.355v12.801c0 6.086-17.219 12.891-40.266 12.891-23.047-.004-40.266-6.809-40.266-12.891zm0 34.211c0 6.086 17.22 12.891 40.266 12.891 23.043 0 40.266-6.805 40.266-12.891V47.902C82.2 54.027 65.746 57.257 50 57.257s-32.199-3.234-40.266-9.355zm0 21.406C9.734 88.195 26.954 95 50 95c23.043 0 40.266-6.805 40.266-12.891V69.308C82.2 75.433 65.746 78.663 50 78.663S17.801 75.43 9.734 69.308zM90.265 17.89c0-6.086-17.223-12.891-40.266-12.891-23.047 0-40.266 6.805-40.266 12.891S26.953 30.781 50 30.781c23.043-.004 40.266-6.809 40.266-12.891z"/></symbol><use xlink:href="#database" y="886" width="100" height="100"/><view id="database-view" viewBox="0 886 100 100"/><symbol id="php" viewBox="0 0 100 100"><path d="M67.086 31.777a2.07 2.07 0 00.98-.77 2.1 2.1 0 00.36-1.214c0-.57-.164-1.04-.5-1.41a2.192 2.192 0 00-1.27-.696c-.379-.07-1.14-.105-2.277-.105h-1.527v4.445h1.73c1.242-.004 2.082-.082 2.504-.25zm-30.395 0a2.05 2.05 0 00.988-.77c.239-.347.356-.753.356-1.214 0-.57-.168-1.04-.5-1.41a2.19 2.19 0 00-1.274-.696c-.375-.07-1.132-.105-2.273-.105H32.46v4.445h1.73c1.25-.004 2.082-.082 2.5-.25z"/><path d="M82.812 0H17.187c-3.438 0-6.25 2.813-6.25 6.25v87.5c0 3.438 2.812 6.25 6.25 6.25h65.625c3.438 0 6.25-2.813 6.25-6.25V6.25c0-3.438-2.813-6.25-6.25-6.25zM59.691 24.934h5.074c1.922 0 3.176.078 3.758.234.898.235 1.648.743 2.254 1.532.605.789.91 1.804.91 3.054 0 .961-.18 1.766-.523 2.422-.348.656-.793 1.168-1.332 1.543-.54.371-1.082.617-1.633.742-.758.149-1.852.223-3.285.223h-2.059v5.91h-3.164zm-15.789 0h3.164v6.164h6.195l-.004-6.164h3.165v15.66h-3.165v-6.848h-6.195v6.848h-3.164zm-14.602 0h5.074c1.922 0 3.176.078 3.758.234.898.235 1.648.743 2.254 1.532.605.789.91 1.804.91 3.054 0 .961-.176 1.766-.523 2.422-.348.656-.79 1.168-1.328 1.543a4.723 4.723 0 01-1.641.742c-.754.149-1.848.223-3.277.223h-2.063v5.91L29.3 40.59zm44.113 54.883H26.585v-3.125h46.832zm0-11.066H26.585v-3.125h46.832z"/></symbol><use xlink:href="#php" y="986" width="100" height="100"/><view id="php-view" viewBox="0 986 100 100"/><symbol id="server" viewBox="0 0 100 100"><path d="M21.328 14.164a8.927 8.927 0 00-8.688 6.777L3.433 56.253a15.86 15.86 0 017.16-1.707h78.81c2.593 0 5.023.637 7.207 1.727l-8.957-35.176c-.977-4.094-4.57-6.934-8.73-6.934zM10.594 60.117C4.75 60.117 0 64.871 0 70.715v4.547c0 5.82 4.75 10.574 10.594 10.574h78.832c5.82 0 10.574-4.73 10.574-10.574v-4.57c0-.66-.07-1.297-.184-1.934l-.34-1.34c-1.386-4.23-5.367-7.3-10.05-7.3zm12.504 9.3h.004a3.572 3.572 0 013.57 3.571 3.56 3.56 0 01-1.047 2.524 3.57 3.57 0 11-2.523-6.094zm25.785.794h31.582a2.794 2.794 0 012.797 2.797 2.794 2.794 0 01-2.797 2.797H48.883a2.794 2.794 0 01-2.797-2.797 2.794 2.794 0 012.797-2.797z"/></symbol><use xlink:href="#server" y="1086" width="100" height="100"/><view id="server-view" viewBox="0 1086 100 100"/><symbol id="drag" viewBox="0 0 16 16"><path d="M14.103 5.476a.5.5 0 00-.701-.053.526.526 0 00-.082.713l1.1 1.346H8.512V1.62l1.32 1.113a.501.501 0 00.732-.054.528.528 0 00-.085-.744L8.328.119a.5.5 0 00-.647 0L5.529 1.935a.527.527 0 00-.085.744.504.504 0 00.732.054l1.32-1.113v5.862H1.588L2.68 6.136a.526.526 0 00-.1-.68.5.5 0 00-.675.02L.117 7.67a.525.525 0 000 .66l1.788 2.194a.5.5 0 00.702.053.526.526 0 00.081-.713l-1.1-1.346h5.908v5.862l-1.32-1.113a.501.501 0 00-.698.082.526.526 0 00.051.716l2.152 1.817v-.001a.5.5 0 00.647 0l2.151-1.816a.526.526 0 00.052-.716.501.501 0 00-.699-.082l-1.32 1.113V8.518h5.908l-1.091 1.346a.527.527 0 00.022.776.504.504 0 00.752-.116l1.78-2.194a.527.527 0 000-.66z"/></symbol><use xlink:href="#drag" y="1186" width="16" height="16"/><view id="drag-view" viewBox="0 1186 16 16"/><symbol id="sort-asc" viewBox="0 0 16 16"><path d="M8 0L1.7 6.3l1.6 1.6L7 4.2V16h2.2V4.3L12.9 8l1.6-1.6L8 0z"/></symbol><use xlink:href="#sort-asc" y="1202" width="16" height="16"/><view id="sort-asc-view" viewBox="0 1202 16 16"/><symbol id="sort-desc" viewBox="0 0 16 16"><path d="M6.9 0v11.7L3.2 8.1 1.7 9.7 8 16l6.3-6.3-1.6-1.6L9 11.8V0H6.9z"/></symbol><use xlink:href="#sort-desc" y="1218" width="16" height="16"/><view id="sort-desc-view" viewBox="0 1218 16 16"/><symbol id="sort" viewBox="0 0 16 16"><path d="M0 2.3v2.3h16V2.3H0zm0 4.5v2.3h11.4V6.8H0zm0 4.6v2.3h6.9v-2.3H0z"/></symbol><use xlink:href="#sort" y="1234" width="16" height="16"/><view id="sort-view" viewBox="0 1234 16 16"/><symbol id="appearance" viewBox="0 0 24 24"><path fill-rule="evenodd" clip-rule="evenodd" d="M6 0c-.895 0-2 .62-2 1.808v8.078c.004 2.47 1.62 4.604 4 5.736v3.955C8 21.657 10 23 12 23s4-1.344 4-3.423v-3.955c2.38-1.132 3.996-3.267 4-5.736V7.5a1 1 0 00-1-1H9a1 1 0 000 2h9v1.383c-.003 1.665-1.206 3.33-3.354 4.144a1 1 0 00-.646.935v4.615c0 .597-.685 1.423-2 1.423s-2-.826-2-1.423v-4.615a1 1 0 00-.646-.935c-2.148-.814-3.35-2.48-3.354-4.143V2h12v1.827a1 1 0 102 0v-2.02C20 .62 18.895 0 18 0H6z"/></symbol><use xlink:href="#appearance" y="1250" width="24" height="24"/><view id="appearance-view" viewBox="0 1250 24 24"/><symbol id="backtosite" viewBox="0 0 24 24"><path fill="none" d="M21 12H3m6 6l-6-6 6-6" stroke="#000" stroke-width="2" stroke-linecap="round" stroke-linejoin="round"/></symbol><use xlink:href="#backtosite" y="1274" width="24" height="24"/><view id="backtosite-view" viewBox="0 1274 24 24"/><symbol class="feather feather-shopping-cart" id="commerce" viewBox="0 0 24 24"><circle fill="none" stroke="currentColor" stroke-width="2" stroke-linecap="round" stroke-linejoin="round" cx="9" cy="21" r="1"/><circle fill="none" stroke="currentColor" stroke-width="2" stroke-linecap="round" stroke-linejoin="round" cx="20" cy="21" r="1"/><path fill="none" stroke="currentColor" stroke-width="2" stroke-linecap="round" stroke-linejoin="round" d="M1 1h4l2.68 13.39a2 2 0 002 1.61h9.72a2 2 0 002-1.61L23 6H6"/></symbol><use class="feather feather-shopping-cart" xlink:href="#commerce" y="1298" width="24" height="24"/><view id="commerce-view" viewBox="0 1298 24 24"/><symbol class="feather feather-settings" id="config" viewBox="0 0 24 24"><circle fill="none" stroke="currentColor" stroke-width="2" stroke-linecap="round" stroke-linejoin="round" cx="12" cy="12" r="3"/><path fill="none" stroke="currentColor" stroke-width="2" stroke-linecap="round" stroke-linejoin="round" d="M19.4 15a1.65 1.65 0 00.33 1.82l.06.06a2 2 0 010 2.83 2 2 0 01-2.83 0l-.06-.06a1.65 1.65 0 00-1.82-.33 1.65 1.65 0 00-1 1.51V21a2 2 0 01-2 2 2 2 0 01-2-2v-.09A1.65 1.65 0 009 19.4a1.65 1.65 0 00-1.82.33l-.06.06a2 2 0 01-2.83 0 2 2 0 010-2.83l.06-.06a1.65 1.65 0 00.33-1.82 1.65 1.65 0 00-1.51-1H3a2 2 0 01-2-2 2 2 0 012-2h.09A1.65 1.65 0 004.6 9a1.65 1.65 0 00-.33-1.82l-.06-.06a2 2 0 010-2.83 2 2 0 012.83 0l.06.06a1.65 1.65 0 001.82.33H9a1.65 1.65 0 001-1.51V3a2 2 0 012-2 2 2 0 012 2v.09a1.65 1.65 0 001 1.51 1.65 1.65 0 001.82-.33l.06-.06a2 2 0 012.83 0 2 2 0 010 2.83l-.06.06a1.65 1.65 0 00-.33 1.82V9a1.65 1.65 0 001.51 1H21a2 2 0 012 2 2 2 0 01-2 2h-.09a1.65 1.65 0 00-1.51 1z"/></symbol><use class="feather feather-settings" xlink:href="#config" y="1322" width="24" height="24"/><view id="config-view" viewBox="0 1322 24 24"/><symbol class="feather feather-file" id="content" viewBox="0 0 24 24"><path fill="none" stroke="currentColor" stroke-width="2" stroke-linecap="round" stroke-linejoin="round" d="M13 2H6a2 2 0 00-2 2v16a2 2 0 002 2h12a2 2 0 002-2V9z"/><path fill="none" stroke="currentColor" stroke-width="2" stroke-linecap="round" stroke-linejoin="round" d="M13 2v7h7"/></symbol><use class="feather feather-file" xlink:href="#content" y="1346" width="24" height="24"/><view id="content-view" viewBox="0 1346 24 24"/><symbol class="feather feather-settings" id="devel" viewBox="0 0 24 24"><circle fill="none" stroke="currentColor" stroke-width="2" stroke-linecap="round" stroke-linejoin="round" cx="12" cy="12" r="3"/><path fill="none" stroke="currentColor" stroke-width="2" stroke-linecap="round" stroke-linejoin="round" d="M19.4 15a1.65 1.65 0 00.33 1.82l.06.06a2 2 0 010 2.83 2 2 0 01-2.83 0l-.06-.06a1.65 1.65 0 00-1.82-.33 1.65 1.65 0 00-1 1.51V21a2 2 0 01-2 2 2 2 0 01-2-2v-.09A1.65 1.65 0 009 19.4a1.65 1.65 0 00-1.82.33l-.06.06a2 2 0 01-2.83 0 2 2 0 010-2.83l.06-.06a1.65 1.65 0 00.33-1.82 1.65 1.65 0 00-1.51-1H3a2 2 0 01-2-2 2 2 0 012-2h.09A1.65 1.65 0 004.6 9a1.65 1.65 0 00-.33-1.82l-.06-.06a2 2 0 010-2.83 2 2 0 012.83 0l.06.06a1.65 1.65 0 001.82.33H9a1.65 1.65 0 001-1.51V3a2 2 0 012-2 2 2 0 012 2v.09a1.65 1.65 0 001 1.51 1.65 1.65 0 001.82-.33l.06-.06a2 2 0 012.83 0 2 2 0 010 2.83l-.06.06a1.65 1.65 0 00-.33 1.82V9a1.65 1.65 0 001.51 1H21a2 2 0 012 2 2 2 0 01-2 2h-.09a1.65 1.65 0 00-1.51 1z"/></symbol><use class="feather feather-settings" xlink:href="#devel" y="1370" width="24" height="24"/><view id="devel-view" viewBox="0 1370 24 24"/><symbol id="edit" viewBox="0 0 24 24"><path fill="none" clip-rule="evenodd" d="M13.045 14.136l-3.712.531.53-3.713 9.546-9.546a2.25 2.25 0 113.182 3.182l-9.546 9.546z" stroke="#000" stroke-width="2" stroke-linecap="round" stroke-linejoin="round"/><path fill="none" d="M18.75 14.25v7.5a1.5 1.5 0 01-1.5 1.5h-15a1.5 1.5 0 01-1.5-1.5v-15a1.5 1.5 0 011.5-1.5h7.5" stroke="#000" stroke-width="2" stroke-linecap="round" stroke-linejoin="round"/></symbol><use xlink:href="#edit" y="1394" width="24" height="24"/><view id="edit-view" viewBox="0 1394 24 24"/><symbol id="extend-copy" viewBox="0 0 24 24"><path fill="none" clip-rule="evenodd" d="M9 15.75v0a6 6 0 01-6-6v-3a1.5 1.5 0 011.5-1.5h9a1.5 1.5 0 011.5 1.5v3a6 6 0 01-6 6z" stroke="#000" stroke-width="2" stroke-linecap="round" stroke-linejoin="round"/><path fill="none" d="M6 5.25V.75m6 4.5V.75m-3 15v3a3 3 0 003 3v0a3 3 0 003-3v0a3 3 0 013-3v0a3 3 0 013 3v4.5m-13.5-15h3" stroke="#000" stroke-width="2" stroke-linecap="round" stroke-linejoin="round"/></symbol><use xlink:href="#extend-copy" y="1418" width="24" height="24"/><view id="extend-copy-view" viewBox="0 1418 24 24"/><symbol id="extend" viewBox="0 0 24 24"><path fill="none" clip-rule="evenodd" d="M12 20a8 8 0 01-8-8V8a2 2 0 012-2h12a2 2 0 012 2v4a8 8 0 01-8 8z" stroke="#000" stroke-width="2" stroke-linecap="round" stroke-linejoin="round"/><path fill="none" d="M8 6V1m8 5V1m-4 19v3m-2-13h4" stroke="#000" stroke-width="2" stroke-linecap="round" stroke-linejoin="round"/></symbol><use xlink:href="#extend" y="1442" width="24" height="24"/><view id="extend-view" viewBox="0 1442 24 24"/><symbol id="group" viewBox="0 0 24 24"><path fill="none" clip-rule="evenodd" d="M4.5 8.25a2.25 2.25 0 100-4.5 2.25 2.25 0 000 4.5z" stroke="#000" stroke-width="2" stroke-linecap="round" stroke-linejoin="round"/><path fill="none" d="M4.5 9.75A3.75 3.75 0 00.75 13.5v2.25h1.5l.75 6h3" stroke="#000" stroke-width="2" stroke-linecap="round" stroke-linejoin="round"/><path fill="none" clip-rule="evenodd" d="M19.5 8.25a2.25 2.25 0 100-4.5 2.25 2.25 0 000 4.5z" stroke="#000" stroke-width="2" stroke-linecap="round" stroke-linejoin="round"/><path fill="none" d="M19.5 9.75a3.75 3.75 0 013.75 3.75v2.25h-1.5l-.75 6h-3" stroke="#000" stroke-width="2" stroke-linecap="round" stroke-linejoin="round"/><path fill="none" clip-rule="evenodd" d="M12 6.75a3 3 0 100-6 3 3 0 000 6zm5.25 6.75a5.25 5.25 0 10-10.5 0v2.25H9l.75 7.5h4.5l.75-7.5h2.25V13.5z" stroke="#000" stroke-width="2" stroke-linecap="round" stroke-linejoin="round"/></symbol><use xlink:href="#group" y="1466" width="24" height="24"/><view id="group-view" viewBox="0 1466 24 24"/><symbol class="feather feather-menu" id="hamburger" viewBox="0 0 24 24"><path fill="none" stroke="currentColor" stroke-width="2" stroke-linecap="round" stroke-linejoin="round" d="M3 12h18M3 6h18M3 18h18"/></symbol><use class="feather feather-menu" xlink:href="#hamburger" y="1490" width="24" height="24"/><view id="hamburger-view" viewBox="0 1490 24 24"/><symbol class="feather feather-help-circle" id="help" viewBox="0 0 24 24"><circle fill="none" stroke="currentColor" stroke-width="2" stroke-linecap="round" stroke-linejoin="round" cx="12" cy="12" r="10"/><path fill="none" stroke="currentColor" stroke-width="2" stroke-linecap="round" stroke-linejoin="round" d="M9.09 9a3 3 0 015.83 1c0 2-3 3-3 3m.08 4h.01"/></symbol><use class="feather feather-help-circle" xlink:href="#help" y="1514" width="24" height="24"/><view id="help-view" viewBox="0 1514 24 24"/><symbol id="people" viewBox="0 0 24 24"><path fill="none" clip-rule="evenodd" d="M7.5 12a4.125 4.125 0 100-8.25 4.125 4.125 0 000 8.25z" stroke="#000" stroke-width="2" stroke-linecap="round" stroke-linejoin="round"/><path fill="none" d="M.75 20.25a6.75 6.75 0 0113.5 0" stroke="#000" stroke-width="2" stroke-linecap="round" stroke-linejoin="round"/><path fill="none" clip-rule="evenodd" d="M17.727 13.5a3.375 3.375 0 100-6.75 3.375 3.375 0 000 6.75z" stroke="#000" stroke-width="2" stroke-linecap="round" stroke-linejoin="round"/><path fill="none" d="M15.813 15.068a5.526 5.526 0 017.437 5.182" stroke="#000" stroke-width="2" stroke-linecap="round" stroke-linejoin="round"/></symbol><use xlink:href="#people" y="1538" width="24" height="24"/><view id="people-view" viewBox="0 1538 24 24"/><symbol id="reports" viewBox="0 0 24 24"><path fill="none" d="M5.75 10.5v10.485a1.2 1.2 0 01-.532 1 3.1 3.1 0 01-3.436 0 1.2 1.2 0 01-.532-1V10.5m4.5 0C5.75 9.672 4.743 9 3.5 9s-2.25.672-2.25 1.5m13-4.5v14.985a1.2 1.2 0 01-.532 1 3.1 3.1 0 01-3.436 0 1.2 1.2 0 01-.532-1V6m4.5 0c0-.828-1.007-1.5-2.25-1.5S9.75 5.172 9.75 6m13-3.5v18.557a1.13 1.13 0 01-.532.953 3.23 3.23 0 01-3.436 0 1.13 1.13 0 01-.532-.953V2.5m4.5 0c0-.828-1.007-1.5-2.25-1.5s-2.25.672-2.25 1.5" stroke="#000" stroke-width="2" stroke-linecap="round" stroke-linejoin="round"/></symbol><use xlink:href="#reports" y="1562" width="24" height="24"/><view id="reports-view" viewBox="0 1562 24 24"/><symbol class="feather feather-search" id="search" viewBox="0 0 24 24"><circle fill="none" stroke="currentColor" stroke-width="2" stroke-linecap="round" stroke-linejoin="round" cx="11" cy="11" r="8"/><path fill="none" stroke="currentColor" stroke-width="2" stroke-linecap="round" stroke-linejoin="round" d="M21 21l-4.35-4.35"/></symbol><use class="feather feather-search" xlink:href="#search" y="1586" width="24" height="24"/><view id="search-view" viewBox="0 1586 24 24"/><symbol class="feather feather-star" id="shortcut" viewBox="0 0 24 24"><path fill="none" stroke="currentColor" stroke-width="2" stroke-linecap="round" stroke-linejoin="round" d="M12 2l3.09 6.26L22 9.27l-5 4.87 1.18 6.88L12 17.77l-6.18 3.25L7 14.14 2 9.27l6.91-1.01L12 2z"/></symbol><use class="feather feather-star" xlink:href="#shortcut" y="1610" width="24" height="24"/><view id="shortcut-view" viewBox="0 1610 24 24"/><symbol class="feather feather-layers" id="structure" viewBox="0 0 24 24"><path fill="none" stroke="currentColor" stroke-width="2" stroke-linecap="round" stroke-linejoin="round" d="M12 2L2 7l10 5 10-5-10-5zM2 17l10 5 10-5M2 12l10 5 10-5"/></symbol><use class="feather feather-layers" xlink:href="#structure" y="1634" width="24" height="24"/><view id="structure-view" viewBox="0 1634 24 24"/><symbol class="feather feather-globe" id="tmgmt" viewBox="0 0 24 24"><circle fill="none" stroke="currentColor" stroke-width="2" stroke-linecap="round" stroke-linejoin="round" cx="12" cy="12" r="10"/><path fill="none" stroke="currentColor" stroke-width="2" stroke-linecap="round" stroke-linejoin="round" d="M2 12h20M12 2a15.3 15.3 0 014 10 15.3 15.3 0 01-4 10 15.3 15.3 0 01-4-10 15.3 15.3 0 014-10z"/></symbol><use class="feather feather-globe" xlink:href="#tmgmt" y="1658" width="24" height="24"/><view id="tmgmt-view" viewBox="0 1658 24 24"/><symbol id="user" viewBox="0 0 24 24"><path fill="none" clip-rule="evenodd" d="M12 11.25a5.25 5.25 0 100-10.5 5.25 5.25 0 000 10.5z" stroke="#000" stroke-width="2" stroke-linecap="round" stroke-linejoin="round"/><path fill="none" d="M2.25 23.25c0-5.385 4.365-9.75 9.75-9.75s9.75 4.365 9.75 9.75" stroke="#000" stroke-width="2" stroke-linecap="round" stroke-linejoin="round"/></symbol><use xlink:href="#user" y="1682" width="24" height="24"/><view id="user-view" viewBox="0 1682 24 24"/></svg>