<svg viewBox="0 0 24 24" xmlns="http://www.w3.org/2000/svg">
  <path fill-rule="evenodd" clip-rule="evenodd" d="M6 0C5.10549 0 4 0.620446 4 1.8077V9.88462V9.88625C4.00402 12.3553 5.62059 14.4902 7.99999 15.6222V19.577C7.99999 21.6563 10.0009 23 12 23C13.9991 23 16 21.6563 16 19.577V15.6222C18.3795 14.4902 19.996 12.3553 20 9.88624L20 9.88462L20 7.5C20 7.43096 19.993 7.36356 19.9797 7.29847C19.8864 6.84278 19.4832 6.5 19 6.5H9C8.44772 6.5 8 6.94772 8 7.5C8 8.05229 8.44772 8.5 9 8.5H18V9.883L18 9.88356C17.997 11.5478 16.7938 13.213 14.6456 14.0273C14.257 14.1746 14 14.5468 14 14.9624V19.577C14 20.174 13.3147 21 12 21C10.6853 21 10 20.174 10 19.577V14.9624C10 14.5468 9.74301 14.1746 9.35444 14.0273C7.20629 13.213 6.00307 11.5479 6 9.88374V2H6H18V3.82693C18 4.37921 18.4477 4.82693 19 4.82693C19.5523 4.82693 20 4.37921 20 3.82693V1.8077C20 0.620446 18.8945 0 18 0H6Z" fill="black"/>
</svg>
