<svg xmlns="http://www.w3.org/2000/svg" viewBox="0 0 16 16">
  <path d="M15.9,9.1C16,8.7,16,8.4,16,8c0-0.4,0-0.8-0.1-1.2l-2.5-0.3c-0.1-0.5-0.3-0.9-0.5-1.3l1.5-2
    c-0.5-0.6-1-1.1-1.6-1.6l-2,1.5c-0.4-0.2-0.9-0.4-1.3-0.6L9.1,0.1C8.8,0,8.4,0,8,0C7.6,0,7.2,0,6.9,0.1L6.5,2.6
    C6.1,2.7,5.6,2.9,5.2,3.1l-2-1.5C2.6,2,2.1,2.6,1.6,3.2l1.5,2C2.9,5.6,2.7,6,2.6,6.5L0.1,6.8C0,7.2,0,7.6,0,8c0,0.4,0,0.7,0.1,1.1
    l2.5,0.3c0.1,0.5,0.3,0.9,0.6,1.3l-1.6,2c0.5,0.6,1,1.1,1.6,1.6l2-1.6c0.4,0.2,0.9,0.4,1.3,0.5l0.3,2.5C7.2,16,7.6,16,8,16
    s0.8,0,1.1-0.1l0.3-2.5c0.5-0.1,0.9-0.3,1.3-0.5l2,1.6c0.6-0.5,1.1-1,1.6-1.6l-1.6-2c0.2-0.4,0.4-0.9,0.5-1.3
    C13.4,9.4,15.9,9.1,15.9,9.1z M8,10.8c-1.6,0-2.8-1.3-2.8-2.8c0-1.5,1.3-2.8,2.8-2.8c1.5,0,2.8,1.3,2.8,2.8
    C10.8,9.5,9.5,10.8,8,10.8z"/>
</svg>
