<svg xmlns="http://www.w3.org/2000/svg" viewBox="0 0 100 100">
<path d="M37.5,6.5v24.7h25v-25c0-1.8,0.7-3.5,2-4.7c1.3-1.2,3.1-1.8,4.8-1.6c3.3,0.4,5.7,3.2,5.6,6.5v24.7h12.2
	c3.3-0.1,6.1,2.4,6.5,5.6c0.2,1.8-0.4,3.5-1.6,4.8c-1.2,1.3-2.9,2.1-4.7,2h-6.3v20.3c0,4.1-1.6,8.1-4.6,11s-6.9,4.6-11,4.6h-7.8V100
	H42.2V79.7h-7.8c-4.1,0-8.1-1.6-11-4.6c-2.9-2.9-4.6-6.9-4.6-11V43.7h-6.3c-1.8,0-3.5-0.7-4.7-2c-1.2-1.3-1.8-3.1-1.6-4.8
	c0.4-3.3,3.2-5.7,6.5-5.6H25v-25c0-1.8,0.7-3.5,2-4.7c1.3-1.2,3.1-1.8,4.8-1.6C35.1,0.4,37.6,3.2,37.5,6.5L37.5,6.5z"/>
</svg>
