<svg viewBox="0 0 24 24" xmlns="http://www.w3.org/2000/svg">
  <g fill="none" stroke="currentColor" stroke-width="2.25" stroke-linecap="round" stroke-linejoin="round">
    <path d="M20.1445 22.7189L11.9937 22.7175L3.84157 22.7175C3.03524 22.7175 2.38171 22.0639 2.38171 21.2577L2.38271 17.3444C3.90783 17.9651 5.65977 18.5011 6.6597 17.1925C7.6595 15.8839 7.65964 14.0682 6.66004 12.7598C5.66038 11.4514 3.90837 11.9877 2.38312 12.6087L2.38312 8.99688C2.38312 8 3.03386 7.2326 3.84011 7.2325C4.64636 7.2323 9.49369 7.2325 9.49369 7.2325C8.0682 5.807 7.98636 3.4952 9.41209 2.0694C10.8378 0.6437 13.1492 0.6435 14.5747 2.069C16.0002 3.4945 15.9867 5.8059 14.561 7.2317L20.1458 7.2311C20.9521 7.2312 21.6015 8 21.6057 8.99688L21.6019 12.6071C20.0768 11.9864 18.3248 11.4504 17.325 12.7589C16.3251 14.0675 16.325 15.8832 17.3245 17.1916C18.3243 18.5 20.0763 17.9637 21.6015 17.3428L21.6046 21.2588C21.6045 22.0651 20.9508 22.7187 20.1445 22.7189Z" />
  </g>
</svg>
