<svg xmlns="http://www.w3.org/2000/svg" fill="none" viewBox="0 0 24 25"><path fill="currentColor" fill-rule="evenodd" d="M18.05 3.31a1.909 1.909 0 1 1 2.7 2.698l-9.033 9.033c-.13.13-.29.223-.466.272l-3.625 1.011 1.103-3.522c.051-.164.141-.313.263-.434l9.058-9.059Zm4.29-1.592a4.159 4.159 0 0 0-5.88 0L7.4 10.777c-.377.378-.658.842-.818 1.353l-1.42 4.537c-.397 1.266.767 2.467 2.044 2.11l4.65-1.296a3.313 3.313 0 0 0 1.452-.849L22.341 7.6a4.159 4.159 0 0 0 0-5.88ZM2.75 6.722c0-.587.476-1.063 1.063-1.063h2.06a1.125 1.125 0 0 0 0-2.25h-2.06A3.313 3.313 0 0 0 .5 6.722v13.826a3.313 3.313 0 0 0 3.313 3.313H17.64a3.313 3.313 0 0 0 3.314-3.313V18.49a1.125 1.125 0 1 0-2.25 0v2.06c0 .586-.476 1.062-1.064 1.062H3.813a1.063 1.063 0 0 1-1.063-1.063V6.722Z" clip-rule="evenodd"/></svg>