<svg xmlns="http://www.w3.org/2000/svg" viewBox="0 0 100 100">
  <path d="M1.6 33.12l6.08 4.8-5.76 11.04C-.96 54.08 4 59.04 7.2 60.8c3.04 1.76 8 1.92 12.48 1.92l8.16-13.28 6.08 3.36-10.56-19.68-21.6.16-.16-.16zm1.12 27.2l13.12 24.32c2.72 3.36 7.68 4.16 12.8 4h13.92V65.6l-26.4-.16c-4.16.32-9.44-.64-13.6-5.12h.16zm82.56-44.8l-7.2 3.04-6.88-10.4c-3.04-4.96-9.76-3.04-12.8-1.12-3.04 1.92-5.44 6.08-7.68 9.92l7.68 13.6-5.92 3.68 22.4.32 10.4-19.04zM61.12 3.2l-27.68-.32c-4.16.64-7.36 4.64-9.76 9.28l-6.72 12.16 20.16 11.2 12.96-22.88c1.76-3.68 5.12-8 11.04-9.28V3.2zm1.28 93.92l.8-7.68 12.48-.96c5.92-.32 7.36-7.04 7.2-10.72-.16-3.52-2.56-7.68-4.96-11.52l-15.546.148-.48-6.88-11.04 19.52 11.68 18.24-.134-.148zm22.534-14.892l13.6-24c1.44-4-.48-8.64-3.36-12.96l-7.36-11.84-19.52 12.16 13.76 22.4c2.4 3.36 4.48 8.32 2.72 14.24h.16z"/>
</svg>
