<svg xmlns="http://www.w3.org/2000/svg" viewBox="0 0 64 64">
  <path d="M32 0C14.327 0 0 14.327 0 32s14.327 32 32 32 32-14.327 32-32S49.673 0 32 0zm0 60c-3.935 0-7.68-.813-11.077-2.278l14.572-16.393C35.82 40.963 36 40.49 36 40v-6c0-1.105-.895-2-2-2-7.062 0-14.513-7.341-14.586-7.414C19.039 24.211 18.53 24 18 24h-8c-1.104 0-2 .895-2 2v12c0 .758.428 1.45 1.106 1.789L16 43.236v11.743C8.747 49.919 4 41.514 4 32c0-4.295.968-8.363 2.696-12H14c.53 0 1.039-.211 1.414-.586l8-8c.375-.375.586-.884.586-1.414V5.162C26.535 4.407 29.22 4 32 4c4.4 0 8.563 1.016 12.268 2.825-.259.219-.511.448-.753.69C41.248 9.782 40 12.795 40 16s1.248 6.219 3.515 8.485c2.277 2.277 5.326 3.517 8.477 3.516.198 0 .396-.005.595-.015.863 3.238 2.422 11.666-.525 23.271-.028.109-.044.218-.053.327C46.926 56.777 39.84 60 32 60z" />
</svg>
