<svg xmlns="http://www.w3.org/2000/svg" viewBox="0 0 100 100">
  <path d="M91.125 53.008c-.3125.96875-.84766 1.8047-1.6094 2.5078-1.4141 1.4141-3.5234 2.2852-5.5273 2.2852h-.11719c-.89062.007813-1.7695 0-2.6562 0l-23.402.003907v26.18c0 2.1172-.89062 3.9922-2.2969 5.5273-1.4141 1.5312-3.5078 2.1953-5.5273 2.2852-1.0742.039063-2.0781-.1875-3.0078-.67188-.96875-.3125-1.8047-.84766-2.5078-1.6094-1.418-1.4219-2.2852-3.5312-2.2852-5.5312v-.11719c-.007812-.89063 0-1.7695 0-2.6562v-23.406h-26.172c-2.1172 0-3.9922-.87891-5.5273-2.2852-1.5352-1.418-2.1992-3.5078-2.2852-5.5273-.039063-1.0742.1875-2.0781.67188-3.0078.3125-.96875.84766-1.8047 1.6094-2.5078 1.4141-1.4141 3.5234-2.2852 5.5273-2.2852h.11719c.89062-.007812 1.7695 0 2.6562 0l23.402-.003906v-26.172c0-2.1172.89062-3.9922 2.2969-5.5273 1.4141-1.5352 3.5039-2.1992 5.5234-2.2852 1.0742-.039063 2.0781.1875 3.0078.67188.96875.3125 1.8047.84766 2.5078 1.6094 1.4141 1.4141 2.2852 3.5234 2.2852 5.5273v.11719c.007812.89062 0 1.7695 0 2.6562l.003906 23.402h26.172c2.1172 0 3.9922.89062 5.5273 2.2852 1.5312 1.4141 2.1953 3.5078 2.2852 5.5273.039063 1.0742-.1875 2.0781-.67188 3.0078z" />
</svg>
