<svg xmlns="http://www.w3.org/2000/svg" viewBox="0 0 100 100">
  <path d="M65.8,21.1C58.7,14.2,52.1,7.6,50.1,0c-2,7.6-8.6,14.2-15.7,21.1C24,31.5,12.1,43.4,12.1,61.3C11.5,82.2,28.3,99.6,49.2,100
    c20.9,0.4,38.4-16.2,38.7-37.1c0-0.5,0-1.1,0-1.6C88.1,43.4,76.2,31.5,65.8,21.1z M31.5,64.7c-1.1,1.4-2.2,3.1-2.9,4.7
    c-0.2,0.2-0.4,0.5-0.7,0.5h-0.2c-0.9,0-1.8-1.6-1.8-1.6l0,0c-0.2-0.4-0.5-0.9-0.7-1.3l-0.2-0.4c-2.3-5-0.4-12.1-0.4-12.1l0,0
    c0.9-3.4,2.5-6.8,4.5-9.7c1.3-1.8,2.7-3.6,4.1-5.4l1.8,1.8l8.5,8.6c0.4,0.4,0.4,0.9,0,1.3l-8.8,9.9l0,0L31.5,64.7z M50.5,89.5
    c-7.2,0-13.2-5.9-13-13.2c0-3.2,1.3-6.3,3.2-8.6c2.7-3.2,6.1-6.5,9.9-10.8c4.3,4.7,7.2,7.7,9.9,11.4c0.2,0.2,0.4,0.5,0.5,0.9
    c1.4,2.2,2.3,4.7,2.3,7.4C63.6,83.8,57.7,89.5,50.5,89.5L50.5,89.5z M75.1,68.6L75.1,68.6c-0.2,0.5-0.7,0.9-1.3,1.1h-0.2
    c-0.5-0.2-0.9-0.5-1.3-0.9l0,0c-2.3-3.4-4.9-6.7-7.7-9.5l-3.4-3.6L49.7,43.8c-2.3-2.2-4.7-4.7-6.8-7c0-0.2-0.2-0.2-0.2-0.2
    c-0.4-0.5-0.7-1.1-0.9-1.8c0-0.2,0-0.2,0-0.4c-0.4-2,0.4-4,1.8-5.4c2.2-2.2,4.5-4.5,6.7-6.8c2.3,2.5,4.9,5,7.4,7.6l0,0
    c5,4.7,9.5,9.9,13.7,15.5c3.4,4.9,5.2,10.4,5.2,16.4C76.2,63.8,75.9,66.3,75.1,68.6z"/>
</svg>
