<svg viewBox="0 0 24 24" xmlns="http://www.w3.org/2000/svg">
  <path d="M0 11.343L1.671 6.186C5.5185 7.545 8.316 8.718 10.056 9.711C9.597 5.3295 9.3555 2.316 9.33 0.670502H14.5965C14.5215 3.066 14.2455 6.0705 13.7595 9.675C16.2555 8.418 19.1085 7.2555 22.3305 6.1875L24 11.343C20.925 12.36 17.91 13.0395 14.958 13.377C16.434 14.661 18.516 16.9485 21.207 20.2395L16.848 23.328C15.4455 21.417 13.7865 18.8145 11.874 15.519C10.083 18.9315 8.508 21.5385 7.1535 23.328L2.8695 20.2395C5.6775 16.779 7.686 14.4915 8.895 13.377C5.7735 12.774 2.808 12.093 0 11.343" />
</svg>
